<svg id="Layer_1" data-name="Layer 1" xmlns="http://www.w3.org/2000/svg" viewBox="0 0 2032.19 1123.93"><defs><style>.cls-1{fill:none;stroke:#757503;stroke-miterlimit:10;stroke-width:160px;}.cls-2{fill:#660;}</style></defs><title>gamepad</title><path class="cls-1" d="M1952.19,562q0,199.56-146.26,340.76t-353,141.2q-187.22,0-329.58-120.49H908.84q-142.37,120.5-329.56,120.5-206.72,0-353-141.2T80,562Q80,362.4,226.26,221.2T579.26,80h873.69q206.72,0,353,141.2T1952.19,562Z" transform="translate(0)"/><path class="cls-2" d="M827.12,622.39V519.12q0-11.3-7.26-18.56t-18.58-7.24H646.39V338.39q0-11.3-7.26-18.56t-18.56-7.26H517.28q-11.3,0-18.56,7.26t-7.26,18.56V493.32H336.57q-11.3,0-18.56,7.26t-7.26,18.56V622.41q0,11.3,7.26,18.56t18.56,7.26H491.48V803.12q0,11.3,7.26,18.56t18.56,7.26H620.57q11.3,0,18.56-7.26t7.26-18.56V648.21H801.28q11.3,0,18.56-7.26T827.12,622.39Z" transform="translate(0)"/><path class="cls-2" d="M1491.35,694.32q0-51.76-36.62-88.38t-88.38-36.62q-51.76,0-88.38,36.62t-36.61,88.38q0,51.76,36.62,88.38t88.38,36.62q51.76,0,88.38-36.62T1491.35,694.32Z" transform="translate(0)"/><path class="cls-2" d="M1701.28,445.76q0-51.76-36.62-88.38t-88.38-36.62q-51.76,0-88.38,36.62t-36.62,88.38q0,51.76,36.62,88.38t88.38,36.61q51.76,0,88.38-36.62T1701.28,445.76Z" transform="translate(0)"/></svg>