<svg id="Layer_1" data-name="Layer 1" xmlns="http://www.w3.org/2000/svg" viewBox="0 0 2023.19 1216"><defs><style>.cls-1{fill:#757503;}</style></defs><title>web</title><path class="cls-1" d="M1888.3,1045.31V168.6a34.19,34.19,0,0,0-33.72-33.72h-1686a34.19,34.19,0,0,0-33.72,33.72v876.71A34.19,34.19,0,0,0,168.59,1079h1686a34.19,34.19,0,0,0,33.72-33.72ZM168.59,1216Q99,1216,49.52,1175.41T0,1077.82V138.18q0-57,49.53-97.59T168.59,0h1686q69.55,0,119.07,40.59t49.52,97.59v939.65q0,57-49.53,97.59T1854.58,1216Z" transform="translate(0.01)"/><path class="cls-1" d="M831.28,838.79,805,865.07a16.53,16.53,0,0,1-23.36.82q-.42-.39-.82-.82l-245-245a16.53,16.53,0,0,1-.82-23.36q.39-.42.82-.82l245-245a16.53,16.53,0,0,1,23.36-.82q.42.39.82.82l26.28,26.28a16.53,16.53,0,0,1,.82,23.36q-.39.42-.82.82L624.68,608l206.6,206.6A16.53,16.53,0,0,1,832.1,838q-.39.42-.82.82ZM1142,277.88,945.88,956.54a17.1,17.1,0,0,1-8.15,10.25,14.68,14.68,0,0,1-12.35,1.31l-32.59-8.94A17.1,17.1,0,0,1,882.54,951a15.74,15.74,0,0,1-1.31-12.88l196.08-678.67a17.1,17.1,0,0,1,8.15-10.25,14.68,14.68,0,0,1,12.35-1.31l32.59,8.94a17.1,17.1,0,0,1,10.25,8.15,15.74,15.74,0,0,1,1.31,12.88ZM1487.34,620.1l-245,245a16.53,16.53,0,0,1-23.36.82q-.42-.39-.82-.82l-26.28-26.28a16.53,16.53,0,0,1-.82-23.36q.39-.42.82-.82L1398.5,608,1191.9,401.4a16.53,16.53,0,0,1-.82-23.36q.39-.42.82-.82L1218.18,351a16.53,16.53,0,0,1,23.36-.82q.42.39.82.82l245,245a16.53,16.53,0,0,1,.82,23.36q-.39.42-.82.82Z" transform="translate(0.01)"/></svg>